<svg xmlns="http://www.w3.org/2000/svg" width="22" height="24" fill="none"><g clip-path="url(#a)"><path fill="#fff" d="M21.656 12C21.656 5.578 16.886.375 11 .375 5.113.375.344 5.578.344 12c0 5.802 3.897 10.612 8.991 11.484V15.36H6.628V12h2.707V9.439c0-2.914 1.59-4.523 4.025-4.523 1.166 0 2.386.227 2.386.227v2.86H14.4c-1.323 0-1.736.896-1.736 1.815V12h2.955l-.472 3.36h-2.483v8.124c5.094-.872 8.991-5.682 8.991-11.484Z"/></g><defs><clipPath id="a"><path fill="#fff" d="M0 0h22v24H0z"/></clipPath></defs></svg>